<svg width="17" height="17" viewBox="0 0 17 17" fill="#000" xmlns="https://www.w3.org/2000/svg">
<path d="M8.50002 0.400391C4.00002 0.400391 0.400024 4.00039 0.400024 8.50039C0.400024 13.0004 4.00002 16.6004 8.50002 16.6004C13 16.6004 16.6 13.0004 16.6 8.50039C16.6 4.00039 13 0.400391 8.50002 0.400391ZM15.3 9.50039C14.4 9.80039 13.4 10.0004 12.5 10.2004C12.6 9.70039 12.6 9.10039 12.6 8.50039C12.6 7.80039 12.5 7.00039 12.5 6.40039C13.2 6.20039 14 6.00039 14.8 5.70039C15.2 6.50039 15.4 7.50039 15.4 8.50039C15.4 8.80039 15.4 9.20039 15.3 9.50039ZM8.50002 15.4004C7.50002 15.4004 6.50002 14.0004 6.00002 11.8004C6.60002 11.9004 7.30002 11.9004 7.90002 11.9004C8.90002 11.9004 10 11.8004 11.1 11.7004C10.5 14.0004 9.50002 15.4004 8.50002 15.4004ZM5.70002 10.6004C5.70002 9.90039 5.60002 9.20039 5.60002 8.50039C5.60002 7.90039 5.60002 7.20039 5.70002 6.70039C6.50002 6.80039 7.30002 6.90039 8.20002 6.90039C9.20002 6.90039 10.3 6.80039 11.3 6.60039C11.4 7.20039 11.4 7.80039 11.4 8.50039C11.4 9.20039 11.4 9.80039 11.3 10.4004C9.40003 10.7004 7.60002 10.7004 5.70002 10.6004ZM8.50002 1.60039C9.50002 1.60039 10.6 3.10039 11.1 5.40039C9.30002 5.70039 7.60002 5.70039 5.90002 5.50039C6.40002 3.10039 7.50002 1.60039 8.50002 1.60039ZM14.2 4.70039C13.5 4.90039 12.9 5.10039 12.2 5.20039C12 4.00039 11.6 2.90039 11 2.10039C12.3 2.60039 13.5 3.50039 14.2 4.70039ZM6.00002 2.10039C5.40002 2.90039 5.00002 4.00039 4.70002 5.30039C4.00002 5.20039 3.40002 5.00039 2.70002 4.80039C3.50002 3.60039 4.60002 2.60039 6.00002 2.10039ZM2.10002 5.90039C2.90002 6.20039 3.70002 6.40039 4.50002 6.50039C4.40002 7.10039 4.40002 7.80039 4.40002 8.50039C4.40002 9.20039 4.40002 9.80039 4.50002 10.4004C3.60002 10.3004 2.60002 10.0004 1.70002 9.80039C1.60002 9.40039 1.60002 8.90039 1.60002 8.50039C1.60002 7.60039 1.80002 6.70039 2.10002 5.90039ZM2.10002 11.2004C3.00002 11.4004 3.80002 11.6004 4.70002 11.7004C5.00002 13.0004 5.40002 14.1004 6.00002 14.9004C4.20002 14.2004 2.90002 12.9004 2.10002 11.2004ZM11 14.9004C11.6 14.0004 12 12.8004 12.3 11.5004C13.2 11.3004 14.1 11.1004 15 10.9004C14.3 12.7004 12.9 14.2004 11 14.9004Z" fill="black"/>
</svg>
