<svg width="20" height="24" viewBox="0 0 20 24" fill="none" xmlns="http://www.w3.org/2000/svg">
<path fill-rule="evenodd" clip-rule="evenodd" d="M2 1C2 0.447715 1.55228 0 1 0C0.447715 0 0 0.447715 0 1V4V6V11V13V18V20V23C0 23.5523 0.447715 24 1 24C1.55228 24 2 23.5523 2 23L2 22H15C16.1046 22 17 21.1046 17 20V18C17 16.8954 16.1046 16 15 16H2L2 15H18C19.1046 15 20 14.1046 20 13V11C20 9.89543 19.1046 9 18 9H2L2 8H10C11.1046 8 12 7.10457 12 6V4C12 2.89543 11.1046 2 10 2H2V1ZM2 4L2 6H10V4H2ZM2 11V13H18V11H2ZM2 18L2 20H15V18H2Z" fill="#272727"/>
</svg>
