<svg width="18" height="17" viewBox="0 0 18 17" fill="none" xmlns="http://www.w3.org/2000/svg">
<path fill-rule="evenodd" clip-rule="evenodd" d="M7 0C3.41015 0 0.5 2.91015 0.5 6.5C0.5 10.0899 3.41015 13 7 13C8.4341 13 9.75973 12.5356 10.8347 11.7489L15.7929 16.7071C16.1834 17.0976 16.8166 17.0976 17.2071 16.7071C17.5976 16.3166 17.5976 15.6834 17.2071 15.2929L12.2489 10.3347C13.0356 9.25973 13.5 7.9341 13.5 6.5C13.5 2.91015 10.5899 0 7 0ZM2.5 6.5C2.5 4.01472 4.51472 2 7 2C9.48528 2 11.5 4.01472 11.5 6.5C11.5 8.98528 9.48528 11 7 11C4.51472 11 2.5 8.98528 2.5 6.5Z" fill="white"/>
</svg>
