<svg width="205" height="47" viewBox="0 0 205 47" fill="none" xmlns="http://www.w3.org/2000/svg">
<path opacity="0.77" fill-rule="evenodd" clip-rule="evenodd" d="M44 47L26 7H18L0 47H8L12.5 37H31.5L36 47H44ZM28.35 30L22 15.8889L15.65 30H28.35Z" fill="#CDCDCD"/>
<path opacity="0.77" fill-rule="evenodd" clip-rule="evenodd" d="M105 26V21C105 16.5817 101.418 13 97 13C92.5817 13 89 16.5817 89 21V26C89 30.4183 92.5817 34 97 34C101.418 34 105 30.4183 105 26ZM97 6C88.7157 6 82 12.7157 82 21V26C82 34.2843 88.7157 41 97 41C105.284 41 112 34.2843 112 26V21C112 12.7157 105.284 6 97 6Z" fill="#DDDDDD"/>
<path opacity="0.77" fill-rule="evenodd" clip-rule="evenodd" d="M151 6H181V13H151V6ZM151 33H181V40H151V33ZM181 19H151V26H181V19Z" fill="#DDDDDD"/>
<path opacity="0.77" fill-rule="evenodd" clip-rule="evenodd" d="M143 13C138.382 13 134.252 15.0868 131.5 18.3688C128.748 15.0868 124.618 13 120 13C111.716 13 105 19.7157 105 28V47H112V28C112 23.5817 115.582 20 120 20C124.418 20 128 23.5817 128 28V47H135V28C135 23.5817 138.582 20 143 20C147.418 20 151 23.5817 151 28V47H158V28C158 19.7157 151.284 13 143 13Z" fill="#CDCDCD"/>
<g opacity="0.77">
<path d="M48 0H55V40H48V0Z" fill="#DDDDDD"/>
<path d="M37 7H44V47H37V7Z" fill="#DDDDDD"/>
</g>
<path opacity="0.77" fill-rule="evenodd" clip-rule="evenodd" d="M66 7H59V47H66V28C66 23.5817 69.5817 20 74 20C78.4183 20 82 23.5817 82 28V47H89V28C89 19.7157 82.2843 13 74 13C71.0588 13 68.3154 13.8465 66 15.3091V7Z" fill="#CDCDCD"/>
<path opacity="0.77" fill-rule="evenodd" clip-rule="evenodd" d="M184 13C178.477 13 174 17.4772 174 23C174 28.5228 178.477 33 184 33L194.515 33C196.44 33 198 34.5601 198 36.4846C198 38.409 196.44 39.9691 194.515 39.9691H177V46.9691H194.515C200.306 46.9691 205 42.275 205 36.4846C205 30.6941 200.306 26 194.515 26L184 26C182.343 26 181 24.6569 181 23C181 21.3431 182.343 20 184 20H196.5V13H184Z" fill="#CDCDCD"/>
<g opacity="0.5">
<path d="M37 47H44L37 31.4445V47Z" fill="#979797"/>
<path d="M111.115 15.9131C107.407 18.6439 105 23.0409 105 28V38.6909C109.206 36.0338 112 31.3432 112 26V21C112 19.2143 111.688 17.5015 111.115 15.9131Z" fill="#979797"/>
<path d="M82.8846 15.9131C82.312 17.5015 82 19.2143 82 21V26C82 31.3432 84.7937 36.0338 89 38.6909V28C89 23.0409 86.5935 18.6439 82.8846 15.9131Z" fill="#979797"/>
<path d="M158 33H151V40H158V33Z" fill="#979797"/>
<path d="M157.868 26H151V19H155.001C156.506 21.0036 157.521 23.3962 157.868 26Z" fill="#979797"/>
<path d="M181 39.9692H177V40H181V39.9692Z" fill="#979797"/>
<path d="M181 26H174.458C174.16 25.053 174 24.0452 174 23C174 21.5778 174.297 20.225 174.832 19H181V26Z" fill="#979797"/>
</g>
</svg>
